# xmcd
#
# Track frame offsets:
#	150
#	15633
#	31523
#	52088
#	66862
#	85519
#	104246
#	121504
#	137974
#	153991
#	171193
#	188672
#	208216
#	228921
#	246104
#	261046
#	288336
#
# Disc length: 3853 seconds
#
# Revision: 1
# Processed by: cddbd v1.5.1PL0 Copyright (c) Steve Scherf et al.
# Submitted via: audiograbber 1.83.01
#
DISCID=e50f0b11
DTITLE=Various Artist - SC8933
DYEAR=1900
DGENRE=Country
TTITLE0=Keith, Toby - You Ain't Leavin' (Thank God Are Ya)
TTITLE1=Cowboy Troy and Big and Rich - I Play Chicken With The Train
TTITLE2=Chesney, Kenny - Be As You Are
TTITLE3=Strait, George - Texas
TTITLE4=Morgan, Craig - Redneck Yacht Club
TTITLE5=Bentley, Dierks - Domestic, Light And Cold
TTITLE6=McCoy, Neal - Billy's Got His Beer Goggles On
TTITLE7=Vassar, Phil - I'll Take That As A Yes
TTITLE8=Hot Apple Pie - Hillbillies (Radio Version)
TTITLE9=Aldean, Jason - Hicktown (Radio Version)
TTITLE10=O'Neal, Jamie - Somebody's Hero
TTITLE11=Adkins, Trace - Arlington
TTITLE12=Pinson, Bobby - Don't Ask Me How I Know
TTITLE13=Keith, Toby and Merle Haggard - She Ain't Hooked On Me No More
TTITLE14=Nichols, Joe - Tequila Makes Her Clothes Fall Off
TTITLE15=Cowboy Troy and Big and Rich - I Play Chicken With The Train (Duet Version
TTITLE15=)
TTITLE16=Data Track
EXTD=
EXTT0=
EXTT1=
EXTT2=
EXTT3=
EXTT4=
EXTT5=
EXTT6=
EXTT7=
EXTT8=
EXTT9=
EXTT10=
EXTT11=
EXTT12=
EXTT13=
EXTT14=
EXTT15=
EXTT16=
PLAYORDER=
